<svg width="370" height="330" viewBox="0 0 370 330" fill="none" xmlns="http://www.w3.org/2000/svg">
<path opacity="0.8" d="M323.776 281.464C316.277 288.511 309.181 293.056 303.574 296.647C237.673 338.856 159.693 326.552 143.12 323.547C118.648 319.11 71.3422 310.534 37.1411 274.632C-14.6022 220.316 -6.54493 134.742 33.5906 78.253C40.9321 67.9202 79.7116 10.5713 158.531 1.3743C206.231 -4.19162 261.835 7.03415 302.102 37.1478C386.625 100.359 380.607 228.057 323.776 281.464Z" fill="#9ACD32"/>
<path d="M12.517 21.7952C12.312 20.4717 14.4431 19.7814 15.5979 20.7905C27.3247 31.0364 54.9307 61.0909 42.2909 108.526C26.4325 168.04 40.4239 191.409 59.3047 206.529C59.3047 206.529 32.1038 197.888 16.9155 174.092C-20.3751 115.668 16.1622 45.3276 12.517 21.7952Z" fill="url(#paint0_linear_1002_224)"/>
<path d="M20.1998 41.4392C21.0832 48.286 21.7919 55.1389 22.1759 61.9951C22.6063 68.8496 22.768 75.7055 22.653 82.5494C22.504 89.3917 22.1888 96.2274 21.4978 103.035C20.8464 109.845 19.8165 116.618 18.7515 123.414C17.7364 130.212 16.6637 137.056 16.4974 144.024C16.3234 150.977 17.2215 158.08 19.7687 164.882C20.406 166.577 21.0854 168.271 21.8861 169.92C22.648 171.58 23.5044 173.216 24.398 174.841C26.2061 178.084 28.2928 181.247 30.6695 184.281C35.4432 190.343 41.3882 195.862 48.0709 200.672C48.7742 201.178 49.86 201.159 50.4962 200.629C51.1207 200.108 51.0794 199.289 50.4117 198.78L50.4069 198.777C48.8232 197.572 47.2587 196.356 45.768 195.091C45.0096 194.467 44.2879 193.82 43.5509 193.183C42.8453 192.526 42.1073 191.889 41.4282 191.216C38.655 188.559 36.1213 185.761 33.8629 182.837C29.3144 177.012 25.8508 170.655 23.4027 164.16C22.2254 160.902 21.3585 157.59 20.8229 154.244C20.2905 150.897 20.089 147.521 20.1364 144.138C20.2308 137.369 21.22 130.588 22.1715 123.783C23.1118 116.975 23.9961 110.128 24.5131 103.256C24.7836 99.8209 24.9742 96.3809 25.0847 92.9383C25.1528 91.2176 25.1777 89.4952 25.2067 87.7733C25.2142 86.0507 25.2094 84.328 25.1865 82.6054C25.0781 75.7143 24.6977 68.8232 24.0365 61.9452C23.3326 55.0687 22.3932 48.2041 21.1139 41.3717C21.0774 41.1763 20.8437 41.0367 20.5919 41.0596C20.3474 41.0822 20.1759 41.2506 20.1998 41.4392Z" fill="white"/>
<path d="M21.7501 166.41C20.0396 167.754 17.3478 167.101 16.6052 165.178C12.5078 154.569 3.96187 123.637 26.8828 90.7389C46.2386 62.9583 53.7767 46.2527 56.6098 38.4573C57.209 36.8088 59.8173 36.8012 60.432 38.4451C67.2138 56.5812 83.7308 117.723 21.7501 166.41Z" fill="url(#paint1_linear_1002_224)"/>
<path d="M19.0432 165.1C18.9869 165.104 18.9295 165.104 18.8713 165.098C18.3829 165.05 18.0302 164.658 18.0834 164.222C18.1439 163.728 24.4108 114.346 49.3689 74.6343C49.6092 74.2522 50.1513 74.1159 50.5802 74.3302C51.0086 74.5449 51.1611 75.0288 50.9208 75.4114C26.1442 114.835 19.9121 163.904 19.852 164.395C19.8051 164.779 19.4589 165.069 19.0432 165.1Z" fill="white"/>
<path d="M355.679 255.182C355.679 258.108 352.994 260.503 349.712 260.503H27.0273C23.7453 260.503 21.06 258.108 21.06 255.182L18.375 89.652C18.375 86.7251 22.238 81.0113 29.3177 81.4407L344.681 74.1566C348.799 74.0615 352.78 75.4764 355.696 78.0709C358.612 80.6654 360.208 84.2128 360.111 87.8853L355.679 255.182Z" fill="#272935"/>
<path d="M349.799 250.076C349.799 252.847 347.258 255.115 344.153 255.115H34.8197C31.7147 255.115 29.1743 252.847 29.1743 250.076L26.6406 99.8062C26.939 90.7634 35.8207 87.5132 41.2045 87.7052L343.46 80.4668C346.353 80.3975 349.151 81.3917 351.199 83.2169C353.248 85.042 354.366 87.5379 354.294 90.1205L349.799 250.076Z" fill="#527805"/>
<path d="M32.5145 178.424C32.2239 178.424 31.9862 178.215 31.9819 177.955L31.7813 165.769C31.7771 165.506 32.012 165.29 32.3063 165.286C32.5907 165.272 32.8424 165.492 32.8468 165.755L33.0474 177.941C33.0516 178.204 32.8167 178.42 32.5224 178.424C32.5198 178.424 32.5171 178.424 32.5145 178.424Z" fill="white"/>
<path d="M32.0349 148.56C31.7443 148.56 31.5066 148.352 31.5023 148.092L30.7344 101.417C30.7504 98.2793 31.8342 95.7727 33.9557 93.9579C37.8106 90.6609 43.8377 90.8265 44.0922 90.8353L140.608 88.5232C140.9 88.4997 141.147 88.7232 141.155 88.9858C141.163 89.2484 140.931 89.4669 140.637 89.4738L44.0897 91.7859C43.8152 91.7761 38.2249 91.6234 34.693 94.6448C32.7879 96.2743 31.8144 98.5513 31.7999 101.412L32.5678 148.078C32.5721 148.34 32.3371 148.556 32.0429 148.56C32.0403 148.56 32.0375 148.56 32.0349 148.56Z" fill="white"/>
<path d="M362.108 274.244H9.32229C4.98135 274.244 1.42969 270.971 1.42969 266.972C1.42969 262.972 4.98135 259.699 9.32229 259.699H362.108C366.449 259.699 370 262.972 370 266.972C370 270.971 366.449 274.244 362.108 274.244Z" fill="#272935"/>
<path opacity="0.42" d="M339.697 124.469L41.0642 126.275C38.0895 126.293 35.6641 124.652 35.6641 122.622V99.7575C35.6641 97.7934 37.9394 96.1806 40.815 96.1066L339.448 88.4182C342.481 88.34 345.002 89.9972 345.002 92.069V120.815C345.002 122.82 342.634 124.451 339.697 124.469Z" fill="black"/>
<path opacity="0.58" d="M242.372 226.893H138.594C136.54 226.893 134.875 225.407 134.875 223.573V137.688C134.875 135.855 136.54 134.369 138.594 134.369H241.322C242.821 134.369 244.036 135.454 244.036 136.792V225.407C244.036 226.227 243.291 226.893 242.372 226.893Z" fill="black"/>
<path opacity="0.28" d="M245.42 242.531C245.25 245.413 242.593 247.677 239.36 247.695L38.0358 248.831C35.542 248.812 33.5312 247.003 33.5312 244.776V238.298C33.5312 235.202 36.3435 232.691 39.8127 232.691H243.449C244.788 232.691 245.874 233.66 245.874 234.856L245.42 242.531Z" fill="black"/>
<path opacity="0.47" d="M125.145 224.759H36.8888C35.0344 224.759 33.5312 223.417 33.5312 221.762V134.723C33.5312 133.067 35.0344 131.726 36.8888 131.726H125.145C126.999 131.726 128.502 133.067 128.502 134.723V221.762C128.503 223.417 126.999 224.759 125.145 224.759Z" fill="black"/>
<path opacity="0.42" d="M341.757 248.981H253.03C252.051 248.981 251.258 248.273 251.258 247.399V135.587C251.258 132.96 253.644 130.83 256.588 130.83H342.245C342.971 130.83 343.56 131.356 343.56 132.004V247.371C343.56 248.26 342.753 248.981 341.757 248.981Z" fill="black"/>
<path d="M183.037 127.149L85.6034 126.369C83.6927 126.354 82.1377 127.737 82.1485 129.443L82.5748 196.183C82.5859 197.899 84.1749 199.272 86.0974 199.22C103.714 198.752 181.927 196.683 185.379 196.812C188.791 196.939 186.938 143.327 186.428 130.098C186.366 128.463 184.87 127.164 183.037 127.149Z" fill="#527805"/>
<path d="M85.997 196.715C85.6552 196.716 85.3814 196.47 85.3797 196.168L84.9531 129.429C84.9521 129.279 85.0141 129.144 85.1323 129.038C85.2144 128.964 85.3576 128.875 85.5728 128.875L183.009 129.655C183.34 129.658 183.608 129.891 183.619 130.185C184.878 162.889 184.903 187.996 183.681 194.147L183.649 194.308L183.465 194.311C170.498 194.474 100.009 196.342 86.0106 196.715L85.997 196.715ZM85.5709 129.272C85.5222 129.272 85.4814 129.287 85.448 129.317C85.413 129.349 85.3978 129.382 85.3981 129.426L85.8247 196.166C85.8251 196.25 85.8994 196.318 85.9901 196.318L86.004 196.517L85.9972 196.318C99.9316 195.947 169.835 194.094 183.274 193.916C184.459 187.522 184.422 162.598 183.175 130.198C183.171 130.117 183.097 130.053 183.005 130.052L85.5709 129.272Z" fill="white"/>
<path d="M171.289 188.125H107.418C105.43 188.125 104.195 186.196 105.203 184.667L130.488 146.296C131.543 144.695 134.179 144.817 135.043 146.506L147.252 170.387C147.977 171.805 150.041 172.179 151.328 171.126L156.267 167.084C157.414 166.146 159.225 166.325 160.114 167.466L173.399 184.52C174.584 186.041 173.365 188.125 171.289 188.125Z" fill="#ACD559"/>
<path d="M115.718 149.932C118.683 146.26 117.752 141.138 113.638 138.492C109.525 135.845 103.787 136.676 100.822 140.348C97.8567 144.02 98.7878 149.142 102.901 151.789C107.015 154.435 112.753 153.604 115.718 149.932Z" fill="#ACD559"/>
<path d="M18.2438 208.003C20.7369 199.772 28.4398 193.01 37.0232 191.301C38.6003 190.987 39.5136 189.553 39.1434 188.149C39.1407 188.139 39.1382 188.129 39.1357 188.12C37.892 183.333 41.3295 179.519 46.5135 178.446C51.6973 177.373 56.6646 179.446 57.9082 184.233C58.7476 187.463 57.6726 191.097 55.2924 193.451C54.3116 194.42 54.2329 195.868 55.1831 196.862C60.4138 202.332 62.5416 210.68 60.2797 218.148C56.948 229.147 45.3615 234.061 33.7536 231.26C22.1457 228.458 14.9121 219.002 18.2438 208.003Z" fill="url(#paint2_linear_1002_224)"/>
<path d="M21.8576 218.499L22.0833 218.358C20.0052 215.725 19.7384 211.925 21.3872 208.441C22.6966 205.673 25.0399 203.142 28.7613 200.476C30.1479 199.483 31.6182 198.54 33.0402 197.628C34.7521 196.53 36.5221 195.395 38.1629 194.162C39.6386 193.051 41.1914 191.674 41.5169 189.871C41.6796 188.973 41.5277 188.016 41.3806 187.091C41.1506 185.642 40.9337 184.274 41.8847 183.227L41.6704 183.072C40.6438 184.203 40.8797 185.689 41.1077 187.125C41.2518 188.032 41.4007 188.971 41.245 189.832C40.9336 191.555 39.4225 192.892 37.9853 193.973C36.3529 195.201 34.5872 196.333 32.8796 197.428C31.4547 198.342 29.9811 199.287 28.5889 200.284C24.8302 202.977 22.4611 205.538 21.1332 208.344C19.4475 211.907 19.7254 215.798 21.8576 218.499Z" fill="white"/>
<path d="M27.3975 220.089L27.6566 220.005C26.2428 216.514 26.6566 212.225 28.7926 208.235C30.91 204.282 34.371 201.058 37.1497 198.692L36.9595 198.514C34.1636 200.895 30.6805 204.14 28.5437 208.13C26.3763 212.178 25.9584 216.536 27.3975 220.089Z" fill="white"/>
<path d="M83.0446 174.934L83.1403 172.091L79.8117 166.192C79.2027 165.112 79.198 163.84 79.7989 162.757L83.5697 155.961C83.5697 155.961 85.7474 170.713 86.3202 171.939C86.8931 173.165 84.7664 175.367 84.7664 175.367L83.0446 174.934Z" fill="url(#paint3_linear_1002_224)"/>
<path d="M83.1492 172.092C83.1492 172.092 73.0247 196.729 55.7734 204.429C55.7734 204.429 61.5152 212.791 64.5117 213.299C64.5117 213.299 82.9406 192.244 84.8194 174.995L83.1492 172.092Z" fill="url(#paint4_linear_1002_224)"/>
<path d="M13.7643 320.291L13.2551 324.028C12.725 325.804 10.1641 330.278 6.87729 329.987C4.85509 329.807 4.61163 324.533 4.89325 323.742C5.40685 322.3 6.34639 320.135 7.70104 318.86H12.3443C13.2028 318.86 13.868 319.531 13.7643 320.291Z" fill="url(#paint5_linear_1002_224)"/>
<path d="M50.1242 276.522L50.9079 280.638C50.9079 280.638 48.2834 304.368 47.8166 313.859C47.7435 315.348 48.1747 316.818 49.0497 318.087L53.6132 324.702L42.015 318.593L41.7841 317.329L43.6827 314.999L41.1958 288.416C41.0496 286.854 41.4107 285.288 42.2355 283.904L44.6345 279.881L50.1242 276.522Z" fill="url(#paint6_linear_1002_224)"/>
<path d="M54.3808 325.66H50.6795C49.9867 325.66 49.3333 325.376 48.9108 324.886C47.757 323.548 45.3664 320.937 44.2233 320.868C42.6845 320.777 42.8813 325.66 42.8813 325.66H42.0187L40.9262 319.592C40.6513 318.065 41.5018 316.553 43.0378 315.837C43.0378 315.837 43.3895 318.16 45.297 319.187C47.2043 320.214 53.0586 323.892 53.0586 323.892C53.0586 323.892 53.7756 323.801 54.5628 323.928C55.7305 324.116 55.5675 325.66 54.3808 325.66Z" fill="url(#paint7_linear_1002_224)"/>
<path d="M34.2422 278.477C34.2422 278.477 18.8671 304.511 16.423 310.455C13.979 316.399 13.1228 321.358 13.09 321.827C13.0388 322.561 12.0165 323.265 9.19839 323.265C7.74406 323.265 7.03175 322.744 6.68306 322.241C6.38546 321.811 6.37014 321.273 6.62087 320.82C7.51024 319.213 10.3327 314.079 11.378 311.75C12.6261 308.97 15.3105 296.369 16.7828 291.988C18.2551 287.607 19.9194 282.855 26.3308 278.477C26.3308 278.477 30.732 274.629 34.2422 278.477Z" fill="url(#paint8_linear_1002_224)"/>
<path d="M43.967 235.819C46.2188 227.302 43.9533 220.885 41.5741 216.929C39.6764 213.774 41.0105 209.871 44.5699 208.219C50.1325 205.637 55.7762 204.429 55.7762 204.429C55.7762 204.429 66.7981 211.622 65.4906 217.252C64.7241 220.552 57.7432 237.017 57.7432 237.017C57.7432 237.017 51.2879 239.744 43.967 235.819Z" fill="url(#paint9_linear_1002_224)"/>
<path d="M35.1626 243.246C36.7766 238.905 43.9559 235.819 43.9559 235.819C51.2768 239.744 57.7321 237.017 57.7321 237.017C57.7321 237.017 59.1798 241.956 58.1806 246.546C57.1814 251.137 50.9126 280.637 50.9126 280.637C41.0351 282.424 25.8438 278.84 25.8438 278.84C32.1352 268.869 33.5485 247.586 35.1626 243.246Z" fill="url(#paint10_linear_1002_224)"/>
<path d="M48.5638 194.515L45.3393 207.444C45.0306 208.582 46.1937 208.396 47.4835 208.179C49.5957 207.824 52.3182 207.091 53.2283 205.624C53.3209 205.475 53.3672 205.306 53.3934 205.137L54.7786 196.172C54.8885 195.461 54.4578 194.77 53.7225 194.479L51.0493 193.421C50.0198 193.014 48.8285 193.538 48.5638 194.515Z" fill="url(#paint11_linear_1002_224)"/>
<path d="M88.8585 185.977C88.8585 185.977 80.3719 212.294 46.1491 209.82C43.9596 209.662 42.0364 211.11 41.8661 213.065L41.7741 214.121C41.5275 216.953 44.1163 219.34 47.2943 219.197C58.6767 218.683 83.1213 214.693 91.4996 190.551L88.8585 185.977Z" fill="url(#paint12_linear_1002_224)"/>
<path d="M91.5007 190.551C91.5007 190.551 93.1314 186.267 93.5411 183.589C93.9508 180.911 92.4427 174.901 91.1468 173.211C89.8509 171.521 89.634 175.664 89.0506 177.611C88.4672 179.557 89.4552 182.336 89.4552 182.336L88.8594 185.976L91.5007 190.551Z" fill="url(#paint13_linear_1002_224)"/>
<path d="M55.2036 183.85C55.2036 183.85 63.3568 194.452 58.2866 197.406C53.2164 200.361 47.4122 192.826 47.4122 192.826C47.4122 192.826 45.5901 187.067 47.663 185.159C49.7359 183.251 55.2036 183.85 55.2036 183.85Z" fill="url(#paint14_linear_1002_224)"/>
<path d="M51.7629 181.277C51.7629 181.277 55.31 182.091 55.779 183.538C56.248 184.986 50.6674 186.227 49.1103 186.266L47.7339 192.052C47.7339 192.052 44.1438 186.527 45.6784 183.396C47.213 180.266 51.7629 181.277 51.7629 181.277Z" fill="url(#paint15_linear_1002_224)"/>
<path d="M49.0427 192.083C49.0427 192.083 45.8544 188.659 44.5114 190.834C43.1684 193.009 47.3641 194.729 48.8513 193.675L49.0427 192.083Z" fill="url(#paint16_linear_1002_224)"/>
<path d="M288.007 182.42C287.93 182.551 283.062 185.748 283.062 185.748C283.062 185.748 284.137 192.613 288.502 195.323C293.301 198.303 300.079 192.869 300.079 192.869C300.079 192.869 305.472 194.013 308.34 183.991C308.999 181.691 305.2 181.497 300.615 181.921C294.704 182.467 288.007 182.42 288.007 182.42Z" fill="url(#paint17_linear_1002_224)"/>
<path d="M278.922 205.839C280.826 204.67 282.931 203.789 285.163 203.247C286.002 203.044 290.528 204.218 293.326 204.161C297.167 204.082 301.077 202.521 304.243 203.226C307.388 203.925 309.962 204.839 311.449 205.783C315.897 208.607 318.509 213.874 320.101 219.09C317.087 221.852 313.294 223.08 313.294 223.08L312.593 248.437L295.796 256.108L276.624 247.516L277.31 222.736C277.31 222.736 271.222 220.205 270.775 219.285C270.329 218.364 273.55 209.136 278.922 205.839Z" fill="url(#paint18_linear_1002_224)"/>
<path d="M271.055 219.174C271.055 219.174 262.896 239.364 281.5 247.662C285.363 247.204 283.878 241.477 283.878 241.477C283.878 241.477 275.794 239.881 278.222 223.038C275.987 221.397 271.055 219.174 271.055 219.174Z" fill="url(#paint19_linear_1002_224)"/>
<path d="M319.698 219.174C319.698 219.174 325.312 240.25 309.252 247.662C305.389 247.204 306.875 241.477 306.875 241.477C306.875 241.477 313.39 238.613 312.53 223.038C314.766 221.397 319.698 219.174 319.698 219.174Z" fill="url(#paint20_linear_1002_224)"/>
<path d="M312.125 249.08H277.491C276.886 249.08 276.391 248.638 276.391 248.098V227.857C276.391 227.317 276.886 226.875 277.491 226.875H312.125C312.73 226.875 313.225 227.317 313.225 227.857V248.098C313.225 248.638 312.73 249.08 312.125 249.08Z" fill="url(#paint21_linear_1002_224)"/>
<path d="M329.378 255.663C325.162 254.799 315.42 255.264 315.42 255.264L315.023 256.222L314.367 260.983C314.367 260.983 323.646 262.476 328.219 262.473C328.686 262.472 329.112 262.41 329.502 262.301C329.642 262.19 329.778 262.074 329.907 261.948C331.847 260.057 331.287 257.278 329.378 255.663Z" fill="url(#paint22_linear_1002_224)"/>
<path d="M312.623 254.995L314.273 255.058C315.16 255.092 315.995 255.478 316.591 256.128C317.187 256.778 317.493 257.639 317.441 258.516C317.4 259.214 317.078 259.868 316.549 260.332C316.019 260.796 315.324 261.031 314.618 260.986L312.094 260.826L312.623 254.995Z" fill="url(#paint23_linear_1002_224)"/>
<path d="M257.148 255.205C261.386 254.457 271.112 255.188 271.112 255.188L271.481 256.157L272.004 260.935C272.004 260.935 262.688 262.173 258.116 262.044C257.65 262.031 257.225 261.957 256.838 261.838C256.702 261.722 256.569 261.603 256.444 261.473C254.557 259.529 255.195 256.767 257.148 255.205Z" fill="url(#paint24_linear_1002_224)"/>
<path d="M273.924 254.997L272.273 255.015C271.386 255.024 270.54 255.387 269.926 256.021C269.312 256.654 268.982 257.506 269.009 258.384C269.031 259.084 269.334 259.746 269.851 260.224C270.368 260.702 271.056 260.957 271.763 260.931L274.29 260.84L273.924 254.997Z" fill="url(#paint25_linear_1002_224)"/>
<path d="M330.565 240.737C328.654 236.809 323.978 236.172 319.998 238.008C319.929 238.089 294.726 249.62 272.5 254.673C273.136 256.494 273.463 258.431 273.535 260.336C273.548 260.76 273.54 261.178 273.512 261.591C290.556 260.81 309.054 255.736 324.949 251.277C329.879 249.858 332.684 245.09 330.565 240.737Z" fill="url(#paint26_linear_1002_224)"/>
<path d="M312.752 260.633C312.685 258.438 313.164 256.395 314.186 254.503C314.215 254.416 314.25 254.333 314.281 254.248C313.012 253.897 311.372 253.421 309.219 252.769C293.436 247.948 281.395 243.08 269.904 237.475C265.44 235.298 260.364 236.757 258.935 241.473C257.66 245.682 260.461 249.276 264.713 250.538C277.433 254.317 270.81 253.267 274.964 254.461C286.121 257.54 300.005 260.345 312.779 261.111C312.769 260.952 312.758 260.792 312.752 260.633Z" fill="url(#paint27_linear_1002_224)"/>
<path d="M285.156 203.247C285.156 203.247 286.854 209.813 295.095 209.677C303.488 209.541 304.236 203.226 304.236 203.226L298.754 202.179L298.295 196.725L290.048 197.271L289.895 202.451L285.156 203.247Z" fill="url(#paint28_linear_1002_224)"/>
<path d="M291.208 181.274C291.208 181.274 281.757 197.616 292.969 201.582C300.877 204.378 305.835 190.729 304.356 187.032C302.07 181.315 300.564 181.994 300.564 181.994L291.208 181.274Z" fill="url(#paint29_linear_1002_224)"/>
<path d="M306.575 179.786C311.244 180.932 307.254 189.971 300.224 187.833C293.194 185.696 290.432 185.727 289.336 187.45C288.241 189.173 288.005 195.293 285.628 192.268C283.022 188.952 281.569 182.296 284.764 180.151C287.62 178.233 288.286 175.26 291.711 175.363C296.257 175.5 299.773 173.701 301.825 174.999C304.181 176.488 303.139 178.943 306.575 179.786Z" fill="url(#paint30_linear_1002_224)"/>
<path d="M288.953 188.856C288.953 188.856 286.937 186.92 286.614 189.253C286.292 191.586 287.328 194.592 288.541 192.944C289.755 191.297 288.953 188.856 288.953 188.856Z" fill="url(#paint31_linear_1002_224)"/>
<path d="M296.994 232.889C297.189 234.067 296.482 235.136 295.162 235.311C293.842 235.485 292.614 234.671 292.419 233.493C292.223 232.315 292.828 231.145 294.147 230.971C295.467 230.796 296.798 231.711 296.994 232.889Z" fill="#ACD559"/>
<path d="M230.344 225.964C250.68 225.964 267.165 211.248 267.165 193.096C267.165 174.943 250.68 160.228 230.344 160.228C210.009 160.228 193.523 174.943 193.523 193.096C193.523 211.248 210.009 225.964 230.344 225.964Z" fill="white"/>
<path d="M197.344 191.352L205.743 187.442V189.108C205.743 189.235 205.708 189.35 205.637 189.454C205.567 189.558 205.45 189.648 205.287 189.724L201.438 191.485C201.275 191.56 201.104 191.625 200.923 191.679C200.743 191.732 200.55 191.781 200.345 191.825C200.55 191.869 200.743 191.918 200.923 191.972C201.104 192.026 201.275 192.09 201.438 192.166L205.287 193.937C205.45 194.012 205.567 194.102 205.637 194.206C205.708 194.311 205.743 194.426 205.743 194.552V196.218L197.344 192.299V191.352Z" fill="#24234F"/>
<path d="M209.578 198.206V184.137H212.198V189.543C212.622 189.183 213.089 188.893 213.598 188.672C214.107 188.452 214.704 188.341 215.39 188.341C215.984 188.341 216.511 188.431 216.97 188.611C217.43 188.791 217.813 189.043 218.121 189.368C218.429 189.693 218.662 190.082 218.821 190.533C218.98 190.984 219.06 191.481 219.06 192.024V198.206H216.44V192.024C216.44 191.43 216.286 190.971 215.979 190.646C215.671 190.321 215.21 190.159 214.595 190.159C214.142 190.159 213.718 190.25 213.322 190.433C212.926 190.616 212.551 190.866 212.198 191.181V198.206H209.578Z" fill="#24234F"/>
<path d="M225.193 198.358C224.253 198.358 223.528 198.12 223.019 197.643C222.51 197.166 222.255 196.508 222.255 195.669V190.244H221.153C221.011 190.244 220.889 190.203 220.787 190.121C220.684 190.039 220.633 189.916 220.633 189.752V188.824L222.383 188.569L222.934 185.918C222.962 185.792 223.028 185.694 223.13 185.624C223.233 185.555 223.362 185.52 223.518 185.52H224.875V188.578H227.738V190.244H224.875V195.508C224.875 195.811 224.96 196.047 225.13 196.218C225.299 196.388 225.525 196.473 225.808 196.473C225.971 196.473 226.107 196.456 226.217 196.422C226.326 196.387 226.422 196.35 226.503 196.313C226.584 196.275 226.657 196.239 226.72 196.204C226.784 196.169 226.848 196.152 226.911 196.152C226.989 196.152 227.053 196.169 227.102 196.204C227.152 196.239 227.205 196.291 227.261 196.36L228.046 197.496C227.664 197.78 227.226 197.994 226.731 198.14C226.236 198.285 225.724 198.358 225.193 198.358Z" fill="#24234F"/>
<path d="M229.883 198.206V188.493H231.484C231.824 188.493 232.046 188.635 232.152 188.919L232.322 189.638C232.513 189.449 232.713 189.275 232.921 189.117C233.13 188.96 233.353 188.824 233.59 188.71C233.826 188.597 234.081 188.507 234.353 188.441C234.625 188.375 234.924 188.341 235.249 188.341C235.935 188.341 236.499 188.507 236.941 188.838C237.383 189.17 237.713 189.61 237.933 190.159C238.102 189.837 238.314 189.561 238.569 189.33C238.823 189.1 239.103 188.912 239.407 188.767C239.711 188.622 240.034 188.515 240.377 188.445C240.72 188.376 241.065 188.341 241.411 188.341C242.012 188.341 242.546 188.423 243.013 188.587C243.479 188.752 243.872 188.991 244.19 189.307C244.508 189.622 244.75 190.007 244.916 190.462C245.082 190.916 245.166 191.437 245.166 192.024V198.206H242.546V192.024C242.546 191.405 242.394 190.94 242.09 190.627C241.786 190.315 241.34 190.159 240.754 190.159C240.485 190.159 240.236 190.2 240.006 190.282C239.776 190.364 239.575 190.482 239.401 190.637C239.228 190.792 239.092 190.985 238.993 191.219C238.894 191.452 238.845 191.721 238.845 192.023V198.205H236.215V192.023C236.215 191.374 236.068 190.9 235.774 190.603C235.481 190.307 235.048 190.158 234.475 190.158C234.1 190.158 233.749 190.242 233.42 190.409C233.091 190.577 232.785 190.806 232.503 191.096V198.205H229.883V198.206Z" fill="#24234F"/>
<path d="M250.479 184.137V198.206H247.859V184.137H250.479Z" fill="#24234F"/>
<path d="M254.469 196.218V194.552C254.469 194.426 254.504 194.311 254.575 194.207C254.645 194.102 254.762 194.012 254.925 193.937L258.774 192.166C259.086 192.028 259.45 191.914 259.867 191.826C259.662 191.782 259.469 191.733 259.289 191.679C259.109 191.625 258.937 191.561 258.774 191.485L254.925 189.724C254.762 189.648 254.645 189.559 254.575 189.454C254.504 189.35 254.469 189.235 254.469 189.109V187.443L262.868 191.352V192.299L254.469 196.218Z" fill="#24234F"/>
<path d="M330.203 159.781C345.926 159.781 358.672 148.404 358.672 134.369C358.672 120.334 345.926 108.957 330.203 108.957C314.48 108.957 301.734 120.334 301.734 134.369C301.734 148.404 314.48 159.781 330.203 159.781Z" fill="white"/>
<path d="M312.922 139.068L306.781 135.679V134.466L312.922 131.092V132.841L308.68 135.072L312.922 137.319V139.068Z" fill="#24234F"/>
<path d="M323.616 131.014C322.937 131.014 322.401 131.369 322.009 132.079C321.617 132.789 321.421 133.777 321.421 135.042C321.421 137.675 322.19 138.991 323.729 138.991C324.403 138.991 325.108 138.799 325.846 138.416V140.297C325.224 140.665 324.429 140.849 323.459 140.849C322.025 140.849 320.923 140.34 320.154 139.321C319.384 138.303 319 136.871 319 135.026C319 133.181 319.396 131.743 320.189 130.711C320.981 129.68 322.083 129.164 323.494 129.164C323.959 129.164 324.404 129.221 324.831 129.335C325.258 129.449 325.715 129.648 326.203 129.933L325.419 131.651C325.158 131.491 324.879 131.345 324.583 131.212C324.286 131.08 323.964 131.014 323.616 131.014Z" fill="#24234F"/>
<path d="M333.449 137.561C333.449 138.623 333.149 139.437 332.548 140.002C331.947 140.567 331.08 140.849 329.948 140.849C328.838 140.849 327.895 140.655 327.117 140.266V138.175C328.069 138.729 328.943 139.007 329.739 139.007C330.192 139.007 330.533 138.895 330.762 138.672C330.992 138.45 331.106 138.147 331.106 137.763C331.106 137.385 330.97 137.039 330.697 136.725C330.424 136.411 329.974 136.063 329.347 135.679C328.801 135.342 328.387 135.02 328.106 134.711C327.824 134.403 327.606 134.057 327.452 133.673C327.299 133.29 327.222 132.844 327.222 132.336C327.222 131.362 327.525 130.589 328.132 130.019C328.738 129.449 329.553 129.164 330.575 129.164C331.55 129.164 332.488 129.408 333.388 129.895L332.604 131.59C332.325 131.445 332.034 131.315 331.729 131.201C331.424 131.087 331.098 131.03 330.749 131.03C330.366 131.03 330.071 131.143 329.865 131.368C329.659 131.594 329.556 131.9 329.556 132.289C329.556 132.673 329.679 133.007 329.926 133.292C330.173 133.577 330.604 133.901 331.219 134.264C332.05 134.762 332.629 135.27 332.957 135.788C333.285 136.306 333.449 136.897 333.449 137.561Z" fill="#24234F"/>
<path d="M340.808 137.561C340.808 138.623 340.508 139.437 339.907 140.002C339.306 140.567 338.44 140.849 337.307 140.849C336.198 140.849 335.254 140.655 334.477 140.266V138.175C335.429 138.729 336.302 139.007 337.098 139.007C337.551 139.007 337.892 138.895 338.121 138.672C338.351 138.45 338.466 138.147 338.466 137.763C338.466 137.385 338.329 137.039 338.056 136.725C337.783 136.411 337.333 136.063 336.706 135.679C336.16 135.342 335.747 135.02 335.465 134.711C335.183 134.403 334.966 134.057 334.812 133.673C334.658 133.29 334.581 132.844 334.581 132.336C334.581 131.362 334.884 130.589 335.491 130.019C336.098 129.449 336.912 129.164 337.934 129.164C338.91 129.164 339.847 129.408 340.748 129.895L339.964 131.59C339.685 131.445 339.393 131.315 339.088 131.201C338.783 131.087 338.457 131.03 338.108 131.03C337.725 131.03 337.43 131.143 337.224 131.368C337.018 131.594 336.915 131.9 336.915 132.289C336.915 132.673 337.039 133.007 337.285 133.292C337.532 133.577 337.963 133.901 338.579 134.264C339.409 134.762 339.988 135.27 340.316 135.788C340.644 136.306 340.808 136.897 340.808 137.561Z" fill="#24234F"/>
<path d="M346.578 137.319L350.846 135.072L346.578 132.841V131.092L352.718 134.466V135.679L346.578 139.068V137.319Z" fill="#24234F"/>
<path d="M282.932 154.013C291.035 146.779 291.035 135.051 282.932 127.818C274.828 120.585 261.69 120.585 253.587 127.818C245.483 135.051 245.483 146.779 253.587 154.013C261.69 161.246 274.828 161.246 282.932 154.013Z" fill="white"/>
<path d="M257.297 140.945L263.294 138.153V139.343C263.294 139.433 263.268 139.515 263.218 139.59C263.168 139.664 263.084 139.728 262.968 139.782L260.22 141.04C260.104 141.093 259.981 141.14 259.852 141.178C259.724 141.216 259.586 141.251 259.44 141.283C259.586 141.314 259.724 141.349 259.852 141.388C259.981 141.426 260.104 141.472 260.22 141.526L262.968 142.79C263.084 142.844 263.168 142.908 263.218 142.983C263.268 143.057 263.294 143.139 263.294 143.229V144.419L257.297 141.621V140.945Z" fill="#24234F"/>
<path d="M266.686 145.858C266.64 145.962 266.582 146.052 266.511 146.129C266.441 146.205 266.36 146.27 266.269 146.321C266.178 146.373 266.082 146.413 265.982 146.439C265.881 146.467 265.782 146.48 265.686 146.48H264.898L269.321 136.382C269.406 136.193 269.53 136.047 269.692 135.946C269.853 135.845 270.048 135.794 270.275 135.794H271.07L266.686 145.858Z" fill="#24234F"/>
<path d="M272.625 144.419V143.229C272.625 143.139 272.65 143.057 272.7 142.983C272.751 142.909 272.834 142.844 272.95 142.79L275.699 141.526C275.921 141.427 276.181 141.346 276.479 141.283C276.333 141.251 276.195 141.217 276.066 141.178C275.938 141.14 275.815 141.094 275.699 141.04L272.95 139.783C272.834 139.728 272.751 139.664 272.7 139.59C272.65 139.516 272.625 139.433 272.625 139.343V138.154L278.622 140.945V141.621L272.625 144.419Z" fill="#24234F"/>
<g opacity="0.3">
<path d="M246.191 61.8485C245.486 61.6642 245.037 61.0306 245.172 60.372C245.467 58.9315 245.837 57.4811 246.271 56.0611C246.482 55.3703 247.28 54.9628 248.054 55.1512C248.063 55.1536 248.072 55.1559 248.081 55.1582C248.838 55.3565 249.281 56.0603 249.073 56.7429C248.661 58.092 248.31 59.4698 248.029 60.8381C247.885 61.5423 247.129 62.0091 246.34 61.8802C246.289 61.8721 246.239 61.8612 246.191 61.8485ZM249.84 51.0351C249.786 51.0209 249.732 51.0035 249.678 50.9831C248.94 50.7024 248.597 49.9408 248.911 49.2822C249.558 47.9295 250.275 46.588 251.044 45.2954C251.42 44.6628 252.295 44.4229 253.007 44.7577C253.716 45.0935 253.985 45.8785 253.609 46.5105C252.879 47.7394 252.197 49.0136 251.583 50.2994C251.292 50.9101 250.537 51.2174 249.84 51.0351ZM256.066 41.208C255.911 41.1674 255.761 41.1027 255.623 41.0131C254.974 40.5926 254.829 39.7821 255.3 39.2025C256.265 38.0144 257.3 36.849 258.376 35.7387C258.902 35.1976 259.818 35.1394 260.425 35.6068C261.031 36.0753 261.097 36.8941 260.573 37.4355C259.55 38.4898 258.568 39.5961 257.651 40.7245C257.281 41.1806 256.639 41.3579 256.066 41.208ZM264.6 32.8686C264.343 32.8015 264.105 32.6704 263.916 32.4774C263.388 31.9382 263.451 31.1193 264.055 30.6483C265.294 29.6825 266.595 28.7528 267.921 27.8853C268.568 27.4631 269.476 27.5879 269.951 28.1648C270.425 28.7422 270.285 29.5534 269.638 29.9768C268.378 30.8006 267.142 31.6834 265.965 32.6017C265.577 32.9039 265.06 32.9891 264.6 32.8686ZM275.002 26.4374C274.642 26.3432 274.324 26.1258 274.132 25.8081C273.752 25.1777 274.016 24.3915 274.722 24.0522C276.167 23.3575 277.666 22.7083 279.176 22.1231C279.912 21.8375 280.767 22.1385 281.087 22.7957C281.406 23.4524 281.069 24.2158 280.333 24.5012C278.897 25.0573 277.472 25.6745 276.099 26.3345C275.749 26.503 275.356 26.53 275.002 26.4374ZM286.738 22.2207C286.273 22.0988 285.886 21.7717 285.746 21.3236C285.532 20.6336 285.984 19.9193 286.757 19.7273C288.34 19.3345 289.963 18.9972 291.579 18.7256C292.367 18.5933 293.126 19.0563 293.275 19.7601C293.423 20.4632 292.904 21.1412 292.116 21.2737C290.581 21.5319 289.039 21.8519 287.534 22.2253C287.263 22.2927 286.989 22.2865 286.738 22.2207ZM338.777 32.6252C338.584 32.5747 338.4 32.4876 338.238 32.3628C337.056 31.453 335.815 30.5771 334.547 29.7597C333.897 29.3404 333.75 28.5301 334.22 27.9501C334.689 27.3695 335.597 27.2388 336.247 27.658C337.582 28.5189 338.891 29.4412 340.135 30.3992C340.742 30.8668 340.81 31.6856 340.286 32.2276C339.902 32.6254 339.306 32.7638 338.777 32.6252ZM299.221 20.4317C298.643 20.2804 298.209 19.8153 298.179 19.2482C298.142 18.5328 298.761 17.9261 299.562 17.8925C301.204 17.8237 302.87 17.8179 304.512 17.8753C305.313 17.9067 305.938 18.5056 305.907 19.2213C305.876 19.9366 305.2 20.494 304.399 20.4662C302.839 20.4115 301.257 20.417 299.698 20.4822C299.532 20.4889 299.372 20.4711 299.221 20.4317ZM328.327 26.2605C328.235 26.2364 328.144 26.2043 328.056 26.1627C326.675 25.5116 325.245 24.9056 323.805 24.3603C323.066 24.0805 322.722 23.3195 323.035 22.6605C323.348 22.0017 324.201 21.6905 324.939 21.9732C326.454 22.547 327.959 23.1849 329.412 23.8695C330.121 24.204 330.393 24.9885 330.018 25.6213C329.69 26.1757 328.976 26.4303 328.327 26.2605ZM311.839 21.1766C311.136 20.9925 310.687 20.3604 310.82 19.7026C310.963 18.998 311.718 18.5304 312.508 18.6572C314.124 18.9181 315.749 19.2448 317.338 19.629C317.348 19.6311 317.358 19.6337 317.368 19.6363C318.124 19.8342 318.567 20.5365 318.36 21.2186C318.151 21.9099 317.353 22.3185 316.579 22.1312C315.07 21.7668 313.526 21.4566 311.991 21.2089C311.939 21.2002 311.888 21.1896 311.839 21.1766Z" fill="url(#paint32_linear_1002_224)"/>
<path d="M345.856 39.1695C345.581 39.0977 345.327 38.9532 345.134 38.739C344.665 38.2183 344.175 37.698 343.679 37.1915C343.151 36.6527 343.213 35.8334 343.816 35.3624C344.42 34.8909 345.338 34.945 345.866 35.4851C346.388 36.0175 346.902 36.5649 347.397 37.1127C347.9 37.6702 347.801 38.4866 347.177 38.9353C346.791 39.2124 346.297 39.2848 345.856 39.1695Z" fill="url(#paint33_linear_1002_224)"/>
</g>
<g opacity="0.3">
<path d="M357.98 77.1891C357.307 77.013 356.858 76.4226 356.949 75.7821C357.044 75.1191 357.124 74.4432 357.188 73.7735C357.256 73.0599 357.96 72.531 358.759 72.5919C359.561 72.6532 360.15 73.2808 360.082 73.9938C360.015 74.6991 359.93 75.411 359.831 76.109C359.73 76.8192 359.003 77.3218 358.207 77.2317C358.129 77.2228 358.053 77.2082 357.98 77.1891Z" fill="url(#paint34_linear_1002_224)"/>
<path d="M286.003 119.327C285.362 119.159 284.721 118.981 284.082 118.792C283.32 118.568 282.907 117.835 283.158 117.155C283.409 116.475 284.235 116.104 284.992 116.33C286.468 116.765 287.961 117.145 289.445 117.464C290.226 117.633 290.705 118.332 290.518 119.028C290.33 119.724 289.545 120.153 288.766 119.985C287.847 119.788 286.918 119.566 286.003 119.327ZM276.982 116.207C276.905 116.187 276.827 116.16 276.752 116.128C275.296 115.493 273.854 114.795 272.466 114.055C271.778 113.688 271.553 112.892 271.964 112.278C272.376 111.663 273.269 111.462 273.956 111.83C275.274 112.533 276.644 113.195 278.027 113.799C278.748 114.113 279.046 114.889 278.694 115.532C278.379 116.108 277.649 116.382 276.982 116.207ZM296.302 121.118C295.645 120.946 295.197 120.376 295.267 119.746C295.346 119.033 296.058 118.513 296.856 118.584C298.383 118.72 299.937 118.799 301.476 118.818C302.278 118.83 302.918 119.418 302.907 120.133C302.895 120.849 302.235 121.421 301.433 121.411C299.813 121.39 298.176 121.307 296.568 121.164C296.477 121.156 296.387 121.14 296.302 121.118ZM266.464 110.257C266.287 110.211 266.117 110.133 265.965 110.024C264.702 109.12 263.467 108.156 262.295 107.161C261.714 106.668 261.691 105.847 262.244 105.329C262.797 104.81 263.716 104.789 264.297 105.283C265.41 106.228 266.582 107.143 267.782 108.001C268.408 108.449 268.508 109.265 268.006 109.824C267.627 110.246 267.012 110.4 266.464 110.257ZM308.744 120.986C308.205 120.845 307.784 120.43 307.71 119.901C307.612 119.19 308.178 118.543 308.974 118.455C310.496 118.288 312.031 118.06 313.538 117.778C314.323 117.63 315.093 118.079 315.258 118.78C315.422 119.481 314.919 120.168 314.135 120.315C312.549 120.612 310.932 120.852 309.33 121.028C309.127 121.051 308.928 121.034 308.744 120.986ZM320.852 118.421C320.421 118.308 320.055 118.019 319.892 117.613C319.622 116.939 320.016 116.197 320.771 115.956C322.22 115.494 323.663 114.972 325.062 114.405C325.792 114.108 326.652 114.396 326.985 115.049C327.316 115.701 326.993 116.469 326.263 116.766C324.791 117.363 323.272 117.912 321.748 118.398C321.448 118.493 321.136 118.495 320.852 118.421ZM332.046 113.561C331.718 113.475 331.423 113.286 331.227 113.008C330.799 112.403 331.002 111.602 331.681 111.22C332.983 110.487 334.265 109.698 335.491 108.872C336.131 108.441 337.041 108.555 337.524 109.127C338.007 109.699 337.88 110.511 337.239 110.943C335.949 111.811 334.6 112.642 333.229 113.413C332.863 113.62 332.432 113.662 332.046 113.561ZM341.785 106.637C341.558 106.578 341.344 106.468 341.166 106.308C340.6 105.8 340.602 104.98 341.171 104.475C342.262 103.506 343.318 102.485 344.311 101.439C344.83 100.893 345.747 100.826 346.358 101.289C346.97 101.752 347.045 102.57 346.526 103.116C345.481 104.217 344.368 105.293 343.22 106.312C342.83 106.658 342.277 106.766 341.785 106.637ZM349.587 97.9707C349.459 97.9373 349.335 97.8872 349.217 97.8205C348.54 97.437 348.339 96.6357 348.769 96.0316C349.592 94.8748 350.37 93.6716 351.082 92.4544C351.453 91.8197 352.332 91.5754 353.041 91.9055C353.752 92.2368 354.028 93.0202 353.656 93.6549C352.907 94.9362 352.088 96.2031 351.222 97.4206C350.866 97.9199 350.192 98.1292 349.587 97.9707ZM355.062 87.9928C355.033 87.9852 355.005 87.9767 354.976 87.9678C354.222 87.725 353.831 86.9819 354.103 86.3087C354.487 85.3581 354.843 84.3858 355.161 83.4178C355.276 83.0674 355.386 82.7164 355.492 82.3658C355.701 81.6744 356.499 81.2651 357.273 81.4519C358.061 81.6271 358.505 82.3498 358.297 83.0408C358.185 83.41 358.069 83.7785 357.948 84.1473C357.614 85.1654 357.239 86.1886 356.835 87.1884C356.573 87.8364 355.793 88.1841 355.062 87.9928Z" fill="url(#paint35_linear_1002_224)"/>
<path d="M257.655 102.36C257.378 102.288 257.123 102.141 256.929 101.925C256.439 101.376 255.953 100.808 255.484 100.235C255.01 99.6573 255.151 98.8461 255.798 98.4235C256.445 98.0009 257.353 98.1257 257.827 98.704C258.273 99.2475 258.735 99.7875 259.2 100.309C259.7 100.868 259.597 101.684 258.97 102.13C258.586 102.404 258.093 102.475 257.655 102.36Z" fill="url(#paint36_linear_1002_224)"/>
</g>
<path d="M264.254 88.4241C264.367 88.6622 264.636 88.8105 264.925 88.7931L273.167 88.2983C275.438 91.0823 278.222 93.5633 281.462 95.6118L281.016 102.97C281 103.229 281.17 103.467 281.438 103.564L290.617 106.896C290.885 106.993 291.193 106.928 291.384 106.733L296.817 101.185C300.739 101.735 304.672 101.693 308.475 101.113L313.992 106.602C314.186 106.794 314.494 106.856 314.761 106.756L323.891 103.317C324.158 103.217 324.324 102.976 324.305 102.718L323.75 95.361C326.869 93.3341 329.648 90.8486 331.943 87.9566L340.187 88.3552C340.476 88.3692 340.743 88.2179 340.852 87.9784L344.585 79.7845C344.694 79.5451 344.621 79.2702 344.403 79.1001L338.186 74.2505C338.803 70.7496 338.756 67.2381 338.106 63.8435L344.255 58.9188C344.471 58.7463 344.54 58.4705 344.427 58.2324L340.576 50.0827C340.463 49.8444 340.194 49.6964 339.905 49.7137L331.662 50.2087C329.392 47.4246 326.607 44.9436 323.367 42.8952L323.814 35.5365C323.83 35.2785 323.66 35.0398 323.392 34.9425L314.213 31.6109C313.944 31.5134 313.637 31.5787 313.446 31.7734L308.013 37.3223C304.091 36.7714 300.157 36.8139 296.354 37.3938L290.838 31.9051C290.644 31.7126 290.335 31.6509 290.069 31.7514L280.939 35.1895C280.672 35.2899 280.506 35.5305 280.525 35.7883L281.08 43.1458C277.961 45.1726 275.181 47.6582 272.887 50.5502L264.643 50.1515C264.354 50.1374 264.087 50.2888 263.978 50.5284L260.245 58.7221C260.136 58.9616 260.209 59.2365 260.427 59.4067L266.644 64.2562C266.027 67.7572 266.074 71.2685 266.724 74.6631L260.575 79.5878C260.359 79.7605 260.29 80.036 260.403 80.2743L264.254 88.4241Z" fill="url(#paint37_linear_1002_224)"/>
<path opacity="0.56" d="M299.597 77.7843C294.938 76.5648 291.85 72.44 292.542 68.0227C293.303 63.167 298.346 59.7695 303.786 60.4481C306.421 60.7765 308.755 62.002 310.357 63.8973C311.96 65.7928 312.64 68.1322 312.271 70.4843C311.51 75.34 306.467 78.7374 301.027 78.0588C300.537 77.9975 300.059 77.9051 299.597 77.7843ZM304.571 62.7149C304.212 62.6207 303.842 62.5494 303.464 62.502C299.294 61.9814 295.426 64.5871 294.843 68.3093C294.26 72.0321 297.178 75.4854 301.349 76.0048C305.52 76.5254 309.387 73.9198 309.97 70.1975C310.252 68.3938 309.731 66.6005 308.502 65.147C307.503 63.9657 306.134 63.1238 304.571 62.7149Z" fill="white"/>
<path opacity="0.56" d="M295.749 90.1577C294.949 89.9482 294.156 89.7017 293.373 89.4175C293.126 89.3282 292.881 89.2351 292.638 89.1387C291.439 88.6629 290.285 88.1026 289.192 87.4667C289.177 87.4581 289.162 87.4494 289.147 87.4408C289.105 87.4161 289.063 87.3913 289.021 87.3661C288.939 87.3178 288.858 87.2685 288.777 87.2192C288.563 87.0896 288.477 86.8554 288.546 86.6454C288.563 86.5944 288.589 86.5447 288.624 86.4985C288.805 86.2619 289.166 86.2019 289.431 86.3625C290.795 87.1928 292.268 87.8973 293.81 88.4565C301.468 91.2371 309.835 90.1091 316.124 86.1258C319.622 83.9105 322.477 80.8115 324.209 77.0093C324.512 76.3427 324.776 75.6671 325 74.9858C326.505 70.4006 326.201 65.5331 324.092 61.0715C321.67 55.9463 317.157 51.9697 311.385 49.8747C299.462 45.5489 285.831 50.6853 280.986 61.3219C280.687 61.9778 280.427 62.6447 280.206 63.3197C279.245 66.2446 279.013 69.3247 279.537 72.3393C279.55 72.4172 279.544 72.4936 279.52 72.5645C279.459 72.7511 279.281 72.8994 279.052 72.9311C278.734 72.9741 278.437 72.7819 278.389 72.4979C277.839 69.333 278.082 66.0991 279.091 63.0285C279.323 62.3199 279.596 61.62 279.91 60.9316C284.996 49.7639 299.316 44.3749 311.822 48.9138C317.883 51.1132 322.62 55.2877 325.163 60.6683C327.377 65.3523 327.696 70.4621 326.116 75.2758C325.881 75.9911 325.604 76.7001 325.285 77.3999C322.821 82.8096 318.144 87.0388 312.117 89.3086C306.869 91.2851 301.143 91.5693 295.749 90.1577Z" fill="white"/>
<g opacity="0.3">
<path d="M187.855 82.1833C187.483 82.0859 187.211 81.7793 187.211 81.4151C187.211 80.7355 187.233 80.0463 187.279 79.3674C187.308 78.9261 187.733 78.5899 188.228 78.6159C188.723 78.6406 189.099 79.0216 189.069 79.4628C189.026 80.1099 189.004 80.7667 189.004 81.4153C189.005 81.857 188.603 82.2155 188.108 82.2162C188.02 82.2159 187.935 82.2043 187.855 82.1833Z" fill="url(#paint38_linear_1002_224)"/>
<path d="M188.487 76.049C188.051 75.9348 187.774 75.542 187.859 75.1349C188.098 73.9842 188.407 72.8313 188.775 71.7088C188.853 71.4725 188.934 71.2362 189.017 70.9997C189.167 70.5778 189.691 70.3669 190.143 70.4771C190.616 70.6105 190.877 71.0604 190.728 71.4817C190.648 71.7077 190.571 71.9335 190.497 72.1593C190.145 73.23 189.851 74.3296 189.622 75.4268C189.532 75.8619 189.064 76.1484 188.577 76.0681C188.546 76.0628 188.516 76.0566 188.487 76.049ZM191.296 68.1228C191.256 68.1122 191.215 68.099 191.175 68.083C190.725 67.899 190.526 67.424 190.732 67.0217C191.391 65.7308 192.147 64.4651 192.976 63.2605C193.236 62.8835 193.79 62.7678 194.21 62.9977C194.632 63.2296 194.764 63.7219 194.505 64.0989C193.713 65.2484 192.993 66.4557 192.364 67.6867C192.176 68.0531 191.718 68.233 191.296 68.1228ZM196.175 61.0414C196.066 61.0127 195.961 60.9649 195.866 60.8979C195.48 60.6215 195.418 60.1172 195.728 59.7721C196.721 58.6671 197.802 57.6049 198.942 56.6166C199.297 56.308 199.863 56.3153 200.21 56.6333C200.555 56.9501 200.547 57.4572 200.192 57.7652C199.105 58.7078 198.074 59.7197 197.128 60.7741C196.893 61.0346 196.513 61.1299 196.175 61.0414ZM202.855 55.2469C202.676 55.2002 202.513 55.1038 202.392 54.962C202.094 54.6093 202.172 54.1066 202.567 53.8402C203.835 52.9842 205.174 52.1913 206.546 51.4832C206.976 51.2623 207.524 51.3945 207.772 51.7762C208.02 52.1589 207.873 52.6485 207.444 52.8702C206.135 53.5447 204.858 54.3013 203.649 55.1175C203.413 55.2766 203.118 55.3158 202.855 55.2469ZM210.917 51.0847C210.668 51.0195 210.453 50.8588 210.343 50.6289C210.15 50.2222 210.363 49.7523 210.818 49.5792C212.28 49.0255 213.793 48.5466 215.317 48.1567C215.794 48.0338 216.29 48.2802 216.427 48.7055C216.563 49.1307 216.288 49.5743 215.812 49.6958C214.358 50.0681 212.914 50.5246 211.52 51.0534C211.321 51.1285 211.109 51.135 210.917 51.0847ZM219.865 48.7955C219.543 48.7111 219.287 48.4673 219.231 48.1512C219.155 47.7147 219.489 47.3052 219.978 47.236C221.547 47.0159 223.145 46.881 224.729 46.836C225.226 46.8234 225.638 47.1693 225.654 47.6111C225.67 48.0528 225.281 48.4227 224.787 48.4366C223.276 48.4797 221.752 48.608 220.257 48.8179C220.122 48.8372 219.989 48.8278 219.865 48.7955ZM229.167 48.529C228.764 48.4234 228.487 48.0748 228.527 47.6877C228.573 47.2474 229.01 46.9234 229.503 46.9637C231.079 47.0934 232.666 47.3133 234.221 47.6168C234.704 47.7188 235.012 48.1392 234.906 48.5708C234.8 49.0026 234.322 49.276 233.838 49.1819C232.354 48.8913 230.84 48.6818 229.338 48.5582C229.279 48.5533 229.222 48.5433 229.167 48.529ZM242.563 51.9293C242.513 51.9164 242.463 51.8993 242.415 51.8777C241.244 51.3584 240.02 50.8874 238.778 50.4776C238.59 50.4145 238.405 50.3547 238.219 50.297C237.752 50.1502 237.506 49.6938 237.67 49.2765C237.833 48.8581 238.352 48.6273 238.813 48.7853C239.01 48.8476 239.207 48.9105 239.404 48.9768C240.702 49.4053 241.985 49.8991 243.213 50.4439C243.657 50.6407 243.838 51.1208 243.617 51.517C243.421 51.8697 242.972 52.0366 242.563 51.9293Z" fill="url(#paint39_linear_1002_224)"/>
</g>
<g opacity="0.3">
<path d="M215.559 114.722C215.089 114.599 214.816 114.161 214.948 113.739C215.081 113.313 215.576 113.064 216.053 113.183C217.489 113.541 218.962 113.824 220.431 114.023C220.917 114.094 221.258 114.498 221.183 114.936C221.108 115.373 220.651 115.673 220.161 115.607C218.621 115.397 217.076 115.101 215.571 114.725C215.567 114.725 215.563 114.723 215.559 114.722ZM211.221 113.386C211.19 113.378 211.16 113.368 211.129 113.357C209.686 112.824 208.265 112.208 206.905 111.525C206.473 111.308 206.32 110.82 206.563 110.435C206.805 110.049 207.354 109.915 207.784 110.129C209.082 110.781 210.438 111.369 211.815 111.877C212.273 112.046 212.49 112.515 212.301 112.923C212.124 113.305 211.655 113.499 211.221 113.386ZM224.613 115.952C224.231 115.852 223.958 115.532 223.969 115.161C223.983 114.719 224.396 114.371 224.891 114.383C226.383 114.42 227.889 114.377 229.369 114.253C229.864 114.214 230.3 114.536 230.345 114.977C230.391 115.416 230.029 115.807 229.535 115.848C227.984 115.977 226.404 116.023 224.841 115.984C224.762 115.982 224.686 115.971 224.613 115.952ZM203.237 109.371C203.139 109.346 203.044 109.305 202.957 109.248C201.699 108.42 200.486 107.515 199.351 106.558C198.991 106.254 198.975 105.747 199.316 105.425C199.655 105.105 200.223 105.091 200.583 105.394C201.665 106.307 202.822 107.169 204.022 107.958C204.42 108.221 204.505 108.722 204.212 109.078C203.982 109.356 203.588 109.463 203.237 109.371ZM233.731 115.191C233.426 115.111 233.178 114.889 233.107 114.593C233.001 114.16 233.308 113.734 233.792 113.64C235.246 113.357 236.696 112.992 238.102 112.553C238.57 112.407 239.081 112.628 239.245 113.045C239.408 113.463 239.161 113.92 238.693 114.065C237.219 114.524 235.699 114.908 234.174 115.205C234.022 115.234 233.87 115.227 233.731 115.191ZM242.379 112.499C242.146 112.438 241.941 112.293 241.826 112.084C241.607 111.687 241.791 111.207 242.235 111.012C243.575 110.425 244.886 109.76 246.131 109.037C246.547 108.795 247.103 108.901 247.373 109.271C247.643 109.642 247.525 110.137 247.11 110.378C245.804 111.137 244.43 111.834 243.026 112.449C242.817 112.541 242.586 112.554 242.379 112.499ZM250.056 108.036C249.892 107.993 249.74 107.908 249.622 107.782C249.303 107.444 249.353 106.938 249.733 106.654C250.876 105.799 251.97 104.872 252.984 103.902C253.321 103.579 253.889 103.561 254.251 103.863C254.613 104.164 254.633 104.671 254.295 104.995C253.231 106.012 252.084 106.983 250.886 107.881C250.647 108.06 250.334 108.109 250.056 108.036Z" fill="url(#paint40_linear_1002_224)"/>
<path d="M196.559 103.725C196.393 103.682 196.239 103.595 196.121 103.467C195.632 102.939 195.158 102.396 194.712 101.852C194.42 101.495 194.506 100.994 194.906 100.733C195.306 100.473 195.867 100.55 196.16 100.906C196.585 101.425 197.037 101.943 197.504 102.447C197.819 102.788 197.765 103.293 197.384 103.575C197.145 103.75 196.835 103.798 196.559 103.725Z" fill="url(#paint41_linear_1002_224)"/>
</g>
<path d="M200.529 93.9866C200.604 94.146 200.784 94.2452 200.977 94.2335L206.493 93.9024C208.012 95.7653 209.875 97.4255 212.043 98.7963L211.745 103.72C211.734 103.893 211.848 104.053 212.027 104.118L218.169 106.347C218.349 106.412 218.555 106.369 218.683 106.238L222.318 102.525C224.942 102.894 227.575 102.866 230.119 102.478L233.811 106.15C233.94 106.279 234.147 106.32 234.326 106.253L240.435 103.953C240.614 103.885 240.725 103.724 240.711 103.552L240.34 98.6286C242.428 97.2723 244.287 95.6091 245.823 93.6738L251.339 93.9407C251.533 93.95 251.712 93.8487 251.785 93.6886L254.282 88.2055C254.355 88.0452 254.306 87.8613 254.16 87.7476L250.001 84.5026C250.414 82.1599 250.382 79.8102 249.947 77.5387L254.062 74.2432C254.206 74.1277 254.252 73.9433 254.177 73.784L251.599 68.3306C251.524 68.1712 251.344 68.0721 251.15 68.0836L245.635 68.4148C244.116 66.5517 242.252 64.8917 240.084 63.5209L240.383 58.5967C240.394 58.4241 240.28 58.2644 240.101 58.1992L233.958 55.9698C233.779 55.9047 233.573 55.9484 233.445 56.0786L229.81 59.7917C227.186 59.423 224.553 59.4514 222.008 59.8394L218.317 56.1666C218.188 56.0378 217.981 55.9966 217.802 56.0639L211.693 58.3644C211.515 58.4317 211.403 58.5926 211.416 58.7652L211.787 63.6884C209.7 65.0447 207.84 66.7079 206.305 68.6431L200.789 68.3763C200.595 68.3669 200.416 68.4682 200.343 68.6285L197.846 74.1113C197.773 74.2716 197.822 74.4555 197.968 74.5693L202.127 77.8144C201.714 80.1571 201.746 82.5066 202.181 84.7782L198.066 88.0736C197.922 88.1891 197.876 88.3736 197.951 88.533L200.529 93.9866Z" fill="url(#paint42_linear_1002_224)"/>
<path opacity="0.56" d="M224.144 86.9682C222.755 86.6047 221.539 85.8569 220.651 84.8074C219.56 83.5162 219.097 81.9226 219.348 80.3205C219.865 77.0141 223.301 74.6996 227.006 75.1612C230.715 75.63 233.304 78.6911 232.786 81.998C232.535 83.6004 231.601 85.0196 230.154 85.9935C228.708 86.9683 226.922 87.3818 225.127 87.1572C224.792 87.1149 224.463 87.0518 224.144 86.9682ZM227.474 76.8846C227.243 76.824 227.004 76.7778 226.758 76.7468C224.032 76.4074 221.505 78.1098 221.124 80.5425C220.94 81.7205 221.28 82.8933 222.083 83.8425C222.886 84.7927 224.056 85.4051 225.376 85.5714C226.696 85.736 228.01 85.4321 229.073 84.7155C230.138 83.9983 230.825 82.9545 231.01 81.7757C231.356 79.563 229.809 77.4957 227.474 76.8846Z" fill="white"/>
<path opacity="0.56" d="M221.439 95.5777C220.894 95.4351 220.354 95.2667 219.817 95.0725C218.751 94.686 217.729 94.2023 216.775 93.6333C216.732 93.6075 216.69 93.5816 216.647 93.5558C216.317 93.3555 216.185 92.9939 216.291 92.6697C216.317 92.591 216.357 92.5143 216.411 92.4431C216.69 92.0777 217.248 91.9858 217.657 92.2331C218.542 92.7718 219.496 93.2275 220.492 93.5885L220.492 93.5887C220.547 93.6086 220.602 93.6279 220.656 93.6471C223.022 94.4824 225.532 94.7594 227.992 94.4908C229.327 94.3449 230.649 94.0373 231.925 93.5689C231.936 93.5651 231.946 93.5613 231.956 93.5575C231.988 93.5454 232.02 93.5342 232.051 93.5221C235.768 92.1222 238.652 89.5143 240.171 86.1785C240.368 85.7469 240.539 85.3099 240.684 84.8688C241.658 81.9004 241.461 78.7493 240.096 75.8603C238.528 72.5425 235.606 69.9689 231.869 68.6129C228.134 67.2588 224.027 67.2806 220.31 68.6795C216.594 70.0795 213.71 72.6873 212.19 76.0231C211.997 76.4474 211.828 76.8792 211.685 77.3159C211.063 79.2099 210.913 81.2034 211.252 83.1548C211.273 83.2751 211.263 83.3931 211.226 83.5026C211.132 83.7907 210.858 84.0197 210.503 84.0686C210.014 84.1352 209.555 83.8376 209.479 83.3997C209.1 81.2161 209.268 78.9851 209.963 76.8668C210.124 76.3776 210.312 75.8949 210.528 75.4202C212.229 71.6876 215.455 68.7701 219.614 67.204C223.772 65.6385 228.363 65.6082 232.545 67.129C236.726 68.6463 239.995 71.5258 241.749 75.2384C243.277 78.4698 243.497 81.9953 242.406 85.3163C242.244 85.8093 242.054 86.2987 241.834 86.7814C238.542 94.0067 229.65 97.727 221.439 95.5777Z" fill="white"/>
<defs>
<linearGradient id="paint0_linear_1002_224" x1="-24.8491" y1="84.5003" x2="90.9669" y2="152.982" gradientUnits="userSpaceOnUse">
<stop offset="0.3" stop-color="#649207"/>
<stop offset="0.7" stop-color="#9FFB2F"/>
</linearGradient>
<linearGradient id="paint1_linear_1002_224" x1="-7.20828" y1="144.733" x2="75.0075" y2="50.9337" gradientUnits="userSpaceOnUse">
<stop offset="0.3" stop-color="#9FFB2F"/>
<stop offset="0.7" stop-color="#649207"/>
</linearGradient>
<linearGradient id="paint2_linear_1002_224" x1="54.3504" y1="238.578" x2="27.6812" y2="161.88" gradientUnits="userSpaceOnUse">
<stop stop-color="#2B3582"/>
<stop offset="1" stop-color="#150E42"/>
</linearGradient>
<linearGradient id="paint3_linear_1002_224" x1="84.8786" y1="164.248" x2="60.6441" y2="225.549" gradientUnits="userSpaceOnUse">
<stop stop-color="#F9B776"/>
<stop offset="1" stop-color="#F47960"/>
</linearGradient>
<linearGradient id="paint4_linear_1002_224" x1="84.3651" y1="164.041" x2="60.1306" y2="225.342" gradientUnits="userSpaceOnUse">
<stop stop-color="#F9B776"/>
<stop offset="1" stop-color="#F47960"/>
</linearGradient>
<linearGradient id="paint5_linear_1002_224" x1="13.7749" y1="324.43" x2="4.79684" y2="324.43" gradientUnits="userSpaceOnUse">
<stop stop-color="#2B3582"/>
<stop offset="1" stop-color="#150E42"/>
</linearGradient>
<linearGradient id="paint6_linear_1002_224" x1="51.5924" y1="353.718" x2="41.3127" y2="219.124" gradientUnits="userSpaceOnUse">
<stop stop-color="#F9B776"/>
<stop offset="1" stop-color="#F47960"/>
</linearGradient>
<linearGradient id="paint7_linear_1002_224" x1="45.5591" y1="320.749" x2="31.0746" y2="320.749" gradientUnits="userSpaceOnUse">
<stop stop-color="#2B3582"/>
<stop offset="1" stop-color="#150E42"/>
</linearGradient>
<linearGradient id="paint8_linear_1002_224" x1="25.6831" y1="355.718" x2="15.4006" y2="221.089" gradientUnits="userSpaceOnUse">
<stop stop-color="#F9B776"/>
<stop offset="1" stop-color="#F47960"/>
</linearGradient>
<linearGradient id="paint9_linear_1002_224" x1="52.9253" y1="222.575" x2="0.530978" y2="165.365" gradientUnits="userSpaceOnUse">
<stop stop-color="#FDF53F"/>
<stop offset="1" stop-color="#D93C65"/>
</linearGradient>
<linearGradient id="paint10_linear_1002_224" x1="35.0701" y1="249.842" x2="94.5783" y2="339.739" gradientUnits="userSpaceOnUse">
<stop offset="0.03" stop-color="#649207"/>
<stop offset="0.45" stop-color="#9FFB2F"/>
</linearGradient>
<linearGradient id="paint11_linear_1002_224" x1="53.0141" y1="221.244" x2="51.0787" y2="205.382" gradientUnits="userSpaceOnUse">
<stop stop-color="#F9B776"/>
<stop offset="1" stop-color="#F47960"/>
</linearGradient>
<linearGradient id="paint12_linear_1002_224" x1="65.7971" y1="184.296" x2="67.6106" y2="234.302" gradientUnits="userSpaceOnUse">
<stop stop-color="#F9B776"/>
<stop offset="1" stop-color="#F47960"/>
</linearGradient>
<linearGradient id="paint13_linear_1002_224" x1="91.2219" y1="183.865" x2="92.9113" y2="230.451" gradientUnits="userSpaceOnUse">
<stop stop-color="#F9B776"/>
<stop offset="1" stop-color="#F47960"/>
</linearGradient>
<linearGradient id="paint14_linear_1002_224" x1="56.0679" y1="185.969" x2="47.1356" y2="206.6" gradientUnits="userSpaceOnUse">
<stop stop-color="#F9B776"/>
<stop offset="1" stop-color="#F47960"/>
</linearGradient>
<linearGradient id="paint15_linear_1002_224" x1="71.5645" y1="233.451" x2="44.6577" y2="156.07" gradientUnits="userSpaceOnUse">
<stop stop-color="#2B3582"/>
<stop offset="1" stop-color="#150E42"/>
</linearGradient>
<linearGradient id="paint16_linear_1002_224" x1="51.2305" y1="183.879" x2="42.2984" y2="204.509" gradientUnits="userSpaceOnUse">
<stop stop-color="#F9B776"/>
<stop offset="1" stop-color="#F47960"/>
</linearGradient>
<linearGradient id="paint17_linear_1002_224" x1="317.081" y1="158.985" x2="300.033" y2="186.126" gradientUnits="userSpaceOnUse">
<stop stop-color="#2B3582"/>
<stop offset="1" stop-color="#150E42"/>
</linearGradient>
<linearGradient id="paint18_linear_1002_224" x1="295.418" y1="206.151" x2="295.418" y2="266.14" gradientUnits="userSpaceOnUse">
<stop offset="0.23" stop-color="#649207"/>
<stop offset="0.7" stop-color="#9FFB2F"/>
</linearGradient>
<linearGradient id="paint19_linear_1002_224" x1="266.886" y1="213.745" x2="293.099" y2="284.681" gradientUnits="userSpaceOnUse">
<stop stop-color="#F9B776"/>
<stop offset="1" stop-color="#F47960"/>
</linearGradient>
<linearGradient id="paint20_linear_1002_224" x1="323.466" y1="213.597" x2="297.253" y2="284.533" gradientUnits="userSpaceOnUse">
<stop stop-color="#F9B776"/>
<stop offset="1" stop-color="#F47960"/>
</linearGradient>
<linearGradient id="paint21_linear_1002_224" x1="295.232" y1="222.642" x2="293.91" y2="282.63" gradientUnits="userSpaceOnUse">
<stop stop-color="#2B3582"/>
<stop offset="1" stop-color="#150E42"/>
</linearGradient>
<linearGradient id="paint22_linear_1002_224" x1="331.321" y1="270.24" x2="316.457" y2="246.542" gradientUnits="userSpaceOnUse">
<stop stop-color="#CB236D"/>
<stop offset="1" stop-color="#4C246D"/>
</linearGradient>
<linearGradient id="paint23_linear_1002_224" x1="325.903" y1="230.66" x2="310.865" y2="276.29" gradientUnits="userSpaceOnUse">
<stop stop-color="#F9B776"/>
<stop offset="1" stop-color="#F47960"/>
</linearGradient>
<linearGradient id="paint24_linear_1002_224" x1="259.098" y1="268.625" x2="267.233" y2="247.927" gradientUnits="userSpaceOnUse">
<stop stop-color="#CB236D"/>
<stop offset="1" stop-color="#4C246D"/>
</linearGradient>
<linearGradient id="paint25_linear_1002_224" x1="289.018" y1="217.245" x2="273.972" y2="262.899" gradientUnits="userSpaceOnUse">
<stop stop-color="#F9B776"/>
<stop offset="1" stop-color="#F47960"/>
</linearGradient>
<linearGradient id="paint26_linear_1002_224" x1="204.62" y1="326.781" x2="254.902" y2="277.591" gradientUnits="userSpaceOnUse">
<stop stop-color="#53D8FF"/>
<stop offset="1" stop-color="#3840F7"/>
</linearGradient>
<linearGradient id="paint27_linear_1002_224" x1="348.197" y1="276.695" x2="261.29" y2="231.598" gradientUnits="userSpaceOnUse">
<stop stop-color="#53D8FF"/>
<stop offset="1" stop-color="#3840F7"/>
</linearGradient>
<linearGradient id="paint28_linear_1002_224" x1="294.905" y1="219.429" x2="294.566" y2="186.442" gradientUnits="userSpaceOnUse">
<stop stop-color="#F9B776"/>
<stop offset="1" stop-color="#F47960"/>
</linearGradient>
<linearGradient id="paint29_linear_1002_224" x1="293.676" y1="201.118" x2="298.879" y2="172.745" gradientUnits="userSpaceOnUse">
<stop stop-color="#F9B776"/>
<stop offset="1" stop-color="#F47960"/>
</linearGradient>
<linearGradient id="paint30_linear_1002_224" x1="317.85" y1="155.132" x2="298.667" y2="185.671" gradientUnits="userSpaceOnUse">
<stop stop-color="#2B3582"/>
<stop offset="1" stop-color="#150E42"/>
</linearGradient>
<linearGradient id="paint31_linear_1002_224" x1="289.377" y1="204.855" x2="285.672" y2="159.952" gradientUnits="userSpaceOnUse">
<stop stop-color="#F9B776"/>
<stop offset="1" stop-color="#F47960"/>
</linearGradient>
<linearGradient id="paint32_linear_1002_224" x1="253.716" y1="33.3965" x2="331.629" y2="58.9923" gradientUnits="userSpaceOnUse">
<stop stop-color="#B37CFF"/>
<stop offset="1" stop-color="#F895E7"/>
</linearGradient>
<linearGradient id="paint33_linear_1002_224" x1="343.198" y1="36.5241" x2="347.748" y2="38.019" gradientUnits="userSpaceOnUse">
<stop stop-color="#B37CFF"/>
<stop offset="1" stop-color="#F895E7"/>
</linearGradient>
<linearGradient id="paint34_linear_1002_224" x1="356.92" y1="74.4974" x2="360.042" y2="75.5232" gradientUnits="userSpaceOnUse">
<stop stop-color="#B37CFF"/>
<stop offset="1" stop-color="#F895E7"/>
</linearGradient>
<linearGradient id="paint35_linear_1002_224" x1="268.287" y1="86.4232" x2="348.539" y2="112.788" gradientUnits="userSpaceOnUse">
<stop stop-color="#B37CFF"/>
<stop offset="1" stop-color="#F895E7"/>
</linearGradient>
<linearGradient id="paint36_linear_1002_224" x1="255.069" y1="99.6931" x2="259.561" y2="101.169" gradientUnits="userSpaceOnUse">
<stop stop-color="#B37CFF"/>
<stop offset="1" stop-color="#F895E7"/>
</linearGradient>
<linearGradient id="paint37_linear_1002_224" x1="338.832" y1="17.444" x2="286.99" y2="110.006" gradientUnits="userSpaceOnUse">
<stop offset="0.3" stop-color="#649207"/>
<stop offset="0.9" stop-color="#9FFB2F"/>
</linearGradient>
<linearGradient id="paint38_linear_1002_224" x1="187.008" y1="80.1182" x2="189.229" y2="80.8478" gradientUnits="userSpaceOnUse">
<stop stop-color="#B37CFF"/>
<stop offset="1" stop-color="#F895E7"/>
</linearGradient>
<linearGradient id="paint39_linear_1002_224" x1="193.556" y1="57.156" x2="237.082" y2="71.4549" gradientUnits="userSpaceOnUse">
<stop stop-color="#B37CFF"/>
<stop offset="1" stop-color="#F895E7"/>
</linearGradient>
<linearGradient id="paint40_linear_1002_224" x1="200.883" y1="100.342" x2="250.561" y2="116.663" gradientUnits="userSpaceOnUse">
<stop stop-color="#B37CFF"/>
<stop offset="1" stop-color="#F895E7"/>
</linearGradient>
<linearGradient id="paint41_linear_1002_224" x1="194.391" y1="101.715" x2="197.789" y2="102.831" gradientUnits="userSpaceOnUse">
<stop stop-color="#527805"/>
<stop offset="1" stop-color="#678A1E" stop-opacity="0.8"/>
</linearGradient>
<linearGradient id="paint42_linear_1002_224" x1="208.676" y1="113.873" x2="236.025" y2="49.2972" gradientUnits="userSpaceOnUse">
<stop offset="0.354" stop-color="#649207"/>
<stop offset="0.924" stop-color="#9FFB2F"/>
</linearGradient>
</defs>
</svg>
